<svg xmlns="http://www.w3.org/2000/svg" width="393" height="393" viewBox="0 0 393 393" fill="none"><path opacity="0.5" d="M5 196.388C5 302.088 90.6872 387.775 196.388 387.775C302.088 387.775 387.775 302.088 387.775 196.388C387.775 90.6872 302.088 5 196.388 5C90.6872 5 5 90.6872 5 196.388Z" stroke="#F04E23" stroke-width="8.61938" stroke-dasharray="1.44 8.62"></path><path d="M196.355 259.735C231.358 259.735 259.734 231.359 259.734 196.356C259.734 161.352 231.358 132.977 196.355 132.977C161.352 132.977 132.976 161.352 132.976 196.356C132.976 231.359 161.352 259.735 196.355 259.735Z" stroke="#EFEBE1" stroke-width="7.65808" stroke-dasharray="1.27 10.21"></path><path d="M103.847 165.461L103.258 167.122L99.7513 165.921C98.7901 165.603 98.0345 165.249 97.3447 164.467L92.6146 159.202L90.1921 166.036L88.7222 165.514L91.8417 156.715L92.9488 157.107L98.3139 163.005C98.8535 163.605 99.609 163.959 100.64 164.324L103.847 165.461Z" fill="#EFEBE1"></path><path d="M115.423 142.641L112.719 146.557L101.002 138.467L103.799 134.418C106.089 131.101 108.709 131.262 110.876 132.758L114.476 135.243C116.642 136.739 117.874 139.091 115.423 142.641ZM105.059 135.337L103.27 137.892L112.42 144.209L114.226 141.593C115.676 139.493 115.23 137.93 113.43 136.687L109.83 134.202C108.197 133.074 106.555 133.17 105.059 135.337Z" fill="#EFEBE1"></path><path d="M127.323 128.388L123.225 132.707L122.152 131.69L123.602 130.162L115.374 122.356L113.925 123.884L112.852 122.866L116.95 118.547L118.023 119.564L116.587 121.078L124.815 128.883L126.25 127.37L127.323 128.388Z" fill="#EFEBE1"></path><path d="M132.598 123.388L131.339 124.375L130.976 123.913L126.087 110.399L127.999 108.898L139.97 116.806L140.357 117.299L139.05 118.325L135.571 115.957L131.126 119.445L132.598 123.388ZM127.933 110.881L130.54 117.846L134.158 115.008L128.013 110.819L127.933 110.881Z" fill="#EFEBE1"></path><path d="M151.133 106.417C152.302 108.547 151.974 110.853 148.992 112.49C145.761 114.264 144.293 113.106 143.66 111.952L142.958 110.674L144.41 109.784L144.946 110.761C145.424 111.631 146.335 112.239 148.341 111.138C150.436 109.987 150.227 108.554 149.584 107.383C148.892 106.122 147.953 105.968 146.521 106.223L144.198 106.62C142.073 107.001 140.774 106.444 139.897 104.846C138.845 102.928 139.254 100.855 142.112 99.286C145.006 97.6972 146.558 98.6708 147.161 99.7716L147.96 101.227L146.534 102.08L145.9 100.926C145.472 100.145 144.543 99.546 142.766 100.521C140.938 101.525 140.795 102.736 141.361 103.811C141.966 104.911 142.919 105.174 144.323 104.911L146.672 104.476C148.39 104.157 149.954 104.269 151.133 106.417Z" fill="#EFEBE1"></path><path d="M172.931 102.731L168.306 103.855L164.942 90.0208L169.724 88.8583C173.641 87.9062 175.491 89.7701 176.112 92.3283L177.146 96.579C177.768 99.1374 177.122 101.712 172.931 102.731ZM170.054 90.3831L167.019 91.1003L169.645 101.904L172.735 101.153C175.215 100.55 175.921 99.0861 175.405 96.9607L174.371 92.71C173.903 90.7814 172.612 89.7612 170.054 90.3831Z" fill="#EFEBE1"></path><path d="M194.569 99.7665L186.082 100.336L185.129 86.1299L193.212 85.5879L193.319 87.1843L186.994 87.6084L187.3 92.1752L193.282 91.7742L193.387 93.3503L187.406 93.7513L187.733 98.6213L194.462 98.1701L194.569 99.7665Z" fill="#EFEBE1"></path><path d="M215.858 96.0744L216.153 94.5637L221.679 95.6406L220.316 102.638L219.202 102.421L219.243 100.943C218.262 101.742 216.874 102.297 214.927 101.918C211.288 101.209 210.518 98.8096 211.08 95.9271L211.932 91.5539C212.447 88.91 214.215 86.6136 218.211 87.3922C222.127 88.1554 222.58 90.5958 222.212 92.4843L222.053 93.2993L220.304 93.0617L220.475 92.1871C220.727 90.8949 220.497 89.4265 217.852 88.9112C215.368 88.4269 214.131 89.6921 213.717 91.8191L212.876 96.1328C212.411 98.5183 213.058 99.9648 215.463 100.434C218.226 100.972 219.232 99.4141 219.498 98.0424L219.734 96.8298L215.858 96.0744Z" fill="#EFEBE1"></path><path d="M227.662 104.811L226.167 104.241L226.376 103.692L235.437 92.5371L237.708 93.4024L237.102 107.735L236.878 108.322L235.327 107.731L235.561 103.529L230.282 101.518L227.662 104.811ZM235.975 94.3676L231.351 100.191L235.646 101.828L236.069 94.4036L235.975 94.3676Z" fill="#EFEBE1"></path><path d="M250.683 115.951L249.216 115.089L249.527 108.483L247.118 107.067L244.153 112.113L242.633 111.22L249.848 98.9453L254.265 101.542C256.221 102.691 257.031 104.671 255.995 106.434L255.245 107.709C254.322 109.28 252.674 109.604 251.205 109.187L250.98 115.444L250.683 115.951ZM250.577 101.183L247.908 105.722L250.16 107.046C251.435 107.795 252.939 108.115 253.812 106.631L254.293 105.81C254.94 104.71 254.592 103.543 252.969 102.589L250.577 101.183Z" fill="#EFEBE1"></path><path d="M256.598 120.212L255.373 119.183L255.75 118.733L267.973 111.174L269.834 112.737L264.553 126.076L264.15 126.556L262.878 125.488L264.481 121.597L260.155 117.962L256.598 120.212ZM267.881 113.079L261.599 117.061L265.12 120.018L267.958 113.145L267.881 113.079Z" fill="#EFEBE1"></path><path d="M269.737 132.412L268.666 131.117L279.626 122.031L280.88 123.544L276.405 136.013L276.445 136.059L285.223 128.783L286.295 130.077L275.335 139.163L274.106 137.682L278.523 125.207L278.485 125.161L269.737 132.412Z" fill="#EFEBE1"></path><path d="M282.339 150.153L281.468 148.622L292.44 142.392L290.33 138.675L291.739 137.875L296.83 146.839L295.42 147.639L293.31 143.923L282.339 150.153Z" fill="#EFEBE1"></path><path d="M289.08 165.015L286.904 159.472L288.281 158.932L289.051 160.893L299.607 156.748L298.837 154.787L300.214 154.246L302.39 159.789L301.013 160.329L300.251 158.388L289.695 162.533L290.457 164.474L289.08 165.015Z" fill="#EFEBE1"></path><path d="M291.377 171.908L291.016 170.35L291.588 170.217L305.9 171.516L306.45 173.884L294.216 181.375L293.603 181.517L293.228 179.899L296.848 177.751L295.571 172.246L291.377 171.908ZM304.682 172.984L297.269 172.394L298.307 176.872L304.704 173.082L304.682 172.984Z" fill="#EFEBE1"></path><path d="M289.29 227.116L289.877 225.455L293.384 226.655C294.346 226.975 295.102 227.329 295.791 228.11L300.521 233.376L302.944 226.542L304.414 227.063L301.294 235.863L300.187 235.47L294.821 229.571C294.282 228.972 293.527 228.618 292.496 228.253L289.29 227.116Z" fill="#EFEBE1"></path><path d="M277.71 249.936L280.414 246.02L292.131 254.108L289.334 258.159C287.044 261.476 284.423 261.315 282.257 259.819L278.658 257.333C276.49 255.837 275.259 253.486 277.71 249.936ZM288.074 257.24L289.863 254.684L280.713 248.368L278.906 250.984C277.457 253.083 277.903 254.647 279.702 255.89L283.303 258.375C284.936 259.503 286.578 259.406 288.074 257.24Z" fill="#EFEBE1"></path><path d="M265.81 264.189L269.908 259.869L270.98 260.887L269.531 262.415L277.759 270.221L279.208 268.693L280.281 269.71L276.183 274.03L275.111 273.013L276.546 271.5L268.319 263.694L266.883 265.207L265.81 264.189Z" fill="#EFEBE1"></path><path d="M260.534 269.19L261.793 268.201L262.156 268.663L267.045 282.179L265.133 283.678L253.162 275.771L252.775 275.277L254.082 274.252L257.561 276.62L262.006 273.132L260.534 269.19ZM265.198 281.695L262.592 274.731L258.976 277.569L265.12 281.758L265.198 281.695Z" fill="#EFEBE1"></path><path d="M241.995 286.16C240.825 284.031 241.154 281.725 244.136 280.087C247.367 278.314 248.834 279.472 249.469 280.626L250.171 281.903L248.718 282.793L248.182 281.817C247.705 280.947 246.793 280.338 244.786 281.44C242.692 282.59 242.901 284.024 243.545 285.195C244.236 286.455 245.176 286.609 246.607 286.355L248.93 285.957C251.055 285.576 252.354 286.134 253.232 287.731C254.284 289.649 253.875 291.723 251.017 293.292C248.123 294.88 246.571 293.906 245.966 292.806L245.167 291.35L246.595 290.497L247.228 291.652C247.657 292.432 248.586 293.031 250.361 292.057C252.189 291.053 252.333 289.842 251.766 288.766C251.163 287.666 250.21 287.404 248.806 287.666L246.457 288.101C244.737 288.421 243.175 288.309 241.995 286.16Z" fill="#EFEBE1"></path><path d="M220.205 289.844L224.83 288.721L228.193 302.554L223.411 303.717C219.495 304.67 217.644 302.805 217.022 300.247L215.99 295.997C215.368 293.439 216.013 290.863 220.205 289.844ZM223.082 302.193L226.117 301.475L223.49 290.672L220.401 291.423C217.921 292.025 217.214 293.489 217.73 295.615L218.764 299.866C219.233 301.795 220.524 302.815 223.082 302.193Z" fill="#EFEBE1"></path><path d="M198.564 292.811L207.05 292.242L208.003 306.448L199.92 306.989L199.813 305.393L206.138 304.969L205.832 300.402L199.85 300.803L199.745 299.227L205.726 298.826L205.399 293.956L198.671 294.407L198.564 292.811Z" fill="#EFEBE1"></path><path d="M177.273 296.503L176.98 298.014L171.453 296.937L172.816 289.939L173.93 290.156L173.889 291.633C174.87 290.834 176.258 290.28 178.207 290.66C181.844 291.368 182.614 293.768 182.053 296.65L181.2 301.023C180.685 303.667 178.917 305.964 174.922 305.184C171.005 304.422 170.553 301.981 170.92 300.092L171.079 299.277L172.828 299.516L172.657 300.39C172.405 301.682 172.635 303.151 175.28 303.666C177.764 304.15 179.001 302.884 179.415 300.757L180.256 296.444C180.72 294.059 180.074 292.612 177.669 292.144C174.906 291.605 173.901 293.163 173.633 294.535L173.397 295.747L177.273 296.503Z" fill="#EFEBE1"></path><path d="M165.473 287.765L166.968 288.335L166.759 288.884L157.698 300.038L155.427 299.173L156.033 284.84L156.257 284.254L157.808 284.845L157.574 289.047L162.854 291.058L165.473 287.765ZM157.159 298.208L161.784 292.385L157.489 290.748L157.066 298.172L157.159 298.208Z" fill="#EFEBE1"></path><path d="M142.451 276.625L143.917 277.487L143.605 284.093L146.015 285.509L148.98 280.463L150.499 281.355L143.284 293.63L138.867 291.034C136.911 289.884 136.103 287.905 137.139 286.141L137.888 284.866C138.811 283.295 140.458 282.972 141.928 283.389L142.152 277.131L142.451 276.625ZM142.557 291.393L145.224 286.853L142.972 285.53C141.697 284.78 140.194 284.461 139.321 285.944L138.839 286.766C138.192 287.865 138.54 289.033 140.164 289.986L142.557 291.393Z" fill="#EFEBE1"></path><path d="M136.535 272.364L137.759 273.393L137.382 273.843L125.159 281.402L123.298 279.838L128.579 266.5L128.983 266.02L130.254 267.088L128.652 270.979L132.978 274.612L136.535 272.364ZM125.252 279.495L131.533 275.515L128.013 272.557L125.174 279.431L125.252 279.495Z" fill="#EFEBE1"></path><path d="M123.395 260.165L124.468 261.46L113.507 270.546L112.253 269.034L116.727 256.565L116.689 256.518L107.91 263.794L106.837 262.5L117.799 253.414L119.026 254.895L114.609 267.369L114.648 267.416L123.395 260.165Z" fill="#EFEBE1"></path><path d="M110.798 242.424L111.668 243.956L100.696 250.186L102.806 253.902L101.397 254.701L96.3066 245.737L97.7156 244.938L99.8256 248.653L110.798 242.424Z" fill="#EFEBE1"></path><path d="M104.052 227.561L106.228 233.102L104.852 233.643L104.082 231.682L93.5251 235.828L94.2949 237.788L92.9188 238.328L90.7427 232.786L92.1188 232.245L92.8812 234.188L103.438 230.043L102.676 228.1L104.052 227.561Z" fill="#EFEBE1"></path><path d="M101.759 220.667L102.121 222.226L101.548 222.359L87.2357 221.06L86.687 218.693L98.9213 211.201L99.5329 211.059L99.9079 212.676L96.2894 214.825L97.5649 220.33L101.759 220.667ZM88.4548 219.593L95.8677 220.183L94.8299 215.704L88.4319 219.494L88.4548 219.593Z" fill="#EFEBE1"></path><path opacity="0.3" d="M196.357 337.702C274.421 337.702 337.705 274.419 337.705 196.355C337.705 118.291 274.421 55.0078 196.357 55.0078C118.294 55.0078 55.0103 118.291 55.0103 196.355C55.0103 274.419 118.294 337.702 196.357 337.702Z" stroke="#EFEBE1" stroke-width="1.21833"></path><path d="M175.359 235.894L206.019 175.223V174.718H170.303V161.934H222.198V174.898L191.502 235.894H175.359Z" fill="#F04E23"></path></svg>